<svg xmlns="http://www.w3.org/2000/svg"  viewBox="0 0 24 24" width="24px" height="24px"><circle cx="12" cy="12" r="10" opacity=".3"/><path d="M21.928,10.788c-0.538-4.551-4.255-8.232-8.81-8.727C7.098,1.407,2,6.112,2,12c0,4.458,2.925,8.239,6.958,9.529l0,0.011 c0.01,0,0.03,0.01,0.04,0.01c0.181,0.06,0.372,0.11,0.562,0.15c0.07,0.03,0.141,0.04,0.211,0.06h0.05 c0.008,0.001,0.015-0.002,0.022-0.001c0.002,0,0.004,0.001,0.006,0.001c0.6,0.1,1.16-0.38,1.15-0.99v-0.83 c-0.008-0.001-0.016-0.004-0.023-0.005l-0.01-0.925l3.987-2.99c0.763-0.64,1.145-1.55,1.024-2.45l-0.974-7.56L14.843,6 c-0.572,0-1.034,0.39-1.034,0.86l-0.02,5.59c0,0.01,0,0.01,0,0.02c0,0.28-0.221,0.42-0.452,0.5c-0.05,0.02-0.1,0.02-0.141,0.02 c-0.341,0-0.603-0.22-0.603-0.5V6.61c0-0.05-0.01-0.1-0.02-0.15c-0.06-0.26-0.291-0.44-0.572-0.44c-0.271,0-0.502,0.18-0.573,0.44 c-0.01,0.05-0.02,0.1-0.02,0.15v5.88c0,0.28-0.261,0.5-0.593,0.5c-0.341,0-0.603-0.22-0.603-0.5l0.01-5.59 c-0.01-0.5-0.492-0.91-1.095-0.91L9,6l-0.966,7.47c-0.131,0.96,0.1,1.91,0.964,2.56L10.213,17c0,0-1.235,0.86-1.235,2.01v0.384 C6.056,18.206,4,15.337,4,12c0-4.724,4.119-8.506,8.952-7.945c3.591,0.417,6.529,3.321,6.982,6.908 c0.479,3.794-1.715,7.157-4.964,8.457v-0.48c-0.02-0.52-0.45-0.95-0.99-0.95c-0.55,0-0.99,0.45-0.99,0.99v1.795 c0,0.631,0.581,1.12,1.198,0.984c0.266-0.059,0.527-0.128,0.782-0.209C19.402,20.167,22.518,15.783,21.928,10.788z"/></svg>